<svg width="400" height="400" viewBox="0 0 400 400" fill="none" xmlns="http://www.w3.org/2000/svg">
  <rect width="400" height="400" fill="#F3F4F6"/>
  <path d="M200 120C194.477 120 190 124.477 190 130V180C190 185.523 194.477 190 200 190C205.523 190 210 185.523 210 180V130C210 124.477 205.523 120 200 120Z" fill="#9CA3AF"/>
  <path d="M200 210C194.477 210 190 214.477 190 220V230C190 235.523 194.477 240 200 240C205.523 240 210 235.523 210 230V220C210 214.477 205.523 210 200 210Z" fill="#9CA3AF"/>
  <path d="M200 260C172.386 260 150 237.614 150 210C150 182.386 172.386 160 200 160C227.614 160 250 182.386 250 210C250 237.614 227.614 260 200 260ZM200 180C183.431 180 170 193.431 170 210C170 226.569 183.431 240 200 240C216.569 240 230 226.569 230 210C230 193.431 216.569 180 200 180Z" fill="#9CA3AF"/>
  <path d="M320 100H80C62.3269 100 48 114.327 48 132V268C48 285.673 62.3269 300 80 300H320C337.673 300 352 285.673 352 268V132C352 114.327 337.673 100 320 100ZM320 120C326.627 120 332 125.373 332 132V268C332 274.627 326.627 280 320 280H80C73.3726 280 68 274.627 68 268V132C68 125.373 73.3726 120 80 120H320Z" fill="#9CA3AF"/>
  <text x="200" y="330" text-anchor="middle" fill="#9CA3AF" font-family="Arial, sans-serif" font-size="14">Product Image</text>
</svg>